<svg viewBox="0 0 200 280" xmlns="http://www.w3.org/2000/svg">
  <!-- Shield -->
  <path d="M 100 20 L 160 50 L 160 120 C 160 170 100 240 100 240 C 100 240 40 170 40 120 L 40 50 Z" 
        fill="none" stroke="#0d3b66" stroke-width="8" stroke-linejoin="round"/>
  
  <!-- Brain -->
  <g transform="translate(100, 90)">
    <!-- Brain outline -->
    <path d="M -25 -20 Q -30 -10 -28 5 Q -25 20 -15 25 Q 0 30 15 25 Q 25 20 28 5 Q 30 -10 25 -20 Q 15 -30 0 -30 Q -15 -30 -25 -20 Z" 
          fill="none" stroke="#0d3b66" stroke-width="3"/>
    
    <!-- Circuit nodes -->
    <circle cx="-18" cy="-15" r="3" fill="#0d3b66"/>
    <circle cx="-8" cy="-22" r="3" fill="#0d3b66"/>
    <circle cx="5" cy="-24" r="3" fill="#0d3b66"/>
    <circle cx="18" cy="-18" r="3" fill="#0d3b66"/>
    <circle cx="20" cy="0" r="3" fill="#0d3b66"/>
    <circle cx="15" cy="18" r="3" fill="#0d3b66"/>
    <circle cx="-5" cy="22" r="3" fill="#0d3b66"/>
    <circle cx="-15" cy="15" r="3" fill="#0d3b66"/>
    <circle cx="-20" cy="5" r="3" fill="#0d3b66"/>
    
    <!-- Connection lines -->
    <line x1="-18" y1="-15" x2="-8" y2="-22" stroke="#0d3b66" stroke-width="2"/>
    <line x1="-8" y1="-22" x2="5" y2="-24" stroke="#0d3b66" stroke-width="2"/>
    <line x1="5" y1="-24" x2="18" y2="-18" stroke="#0d3b66" stroke-width="2"/>
    <line x1="18" y1="-18" x2="20" y2="0" stroke="#0d3b66" stroke-width="2"/>
    <line x1="20" y1="0" x2="15" y2="18" stroke="#0d3b66" stroke-width="2"/>
    <line x1="15" y1="18" x2="-5" y2="22" stroke="#0d3b66" stroke-width="2"/>
    <line x1="-5" y1="22" x2="-15" y2="15" stroke="#0d3b66" stroke-width="2"/>
    <line x1="-15" y1="15" x2="-20" y2="5" stroke="#0d3b66" stroke-width="2"/>
    <line x1="-20" y1="5" x2="-18" y2="-15" stroke="#0d3b66" stroke-width="2"/>
  </g>
  
  <!-- Text -->
  <text x="100" y="260" font-family="Arial, sans-serif" font-size="16" font-weight="bold" 
        text-anchor="middle" fill="#0d3b66">AI & SECURITY</text>
  <text x="100" y="280" font-family="Arial, sans-serif" font-size="16" font-weight="bold" 
        text-anchor="middle" fill="#0d3b66">COMPLIANCE</text>
</svg>